<svg xmlns="http://www.w3.org/2000/svg" width="1200" height="620" viewBox="0 0 1200 620" font-family="-apple-system,Segoe UI,Helvetica,Arial,sans-serif">
<rect width="1200" height="620" fill="#ffffff"/>
<text x="80" y="36" font-size="20" font-weight="600" fill="#1d1f23">Elo vs Stockfish 19: 5 experiments, 4 kept</text>
<line x1="80" x2="1160" y1="550.0" y2="550.0" stroke="#e6e8eb"/>
<text x="70" y="554.0" font-size="12" text-anchor="end" fill="#6b7078">1400</text>
<line x1="80" x2="1160" y1="454.0" y2="454.0" stroke="#e6e8eb"/>
<text x="70" y="458.0" font-size="12" text-anchor="end" fill="#6b7078">1600</text>
<line x1="80" x2="1160" y1="358.0" y2="358.0" stroke="#e6e8eb"/>
<text x="70" y="362.0" font-size="12" text-anchor="end" fill="#6b7078">1800</text>
<line x1="80" x2="1160" y1="262.0" y2="262.0" stroke="#e6e8eb"/>
<text x="70" y="266.0" font-size="12" text-anchor="end" fill="#6b7078">2000</text>
<line x1="80" x2="1160" y1="166.0" y2="166.0" stroke="#e6e8eb"/>
<text x="70" y="170.0" font-size="12" text-anchor="end" fill="#6b7078">2200</text>
<line x1="80" x2="1160" y1="70.0" y2="70.0" stroke="#e6e8eb"/>
<text x="70" y="74.0" font-size="12" text-anchor="end" fill="#6b7078">2400</text>
<text x="188.0" y="570" font-size="12" text-anchor="middle" fill="#6b7078">1</text>
<text x="404.0" y="570" font-size="12" text-anchor="middle" fill="#6b7078">2</text>
<text x="620.0" y="570" font-size="12" text-anchor="middle" fill="#6b7078">3</text>
<text x="836.0" y="570" font-size="12" text-anchor="middle" fill="#6b7078">4</text>
<text x="1052.0" y="570" font-size="12" text-anchor="middle" fill="#6b7078">5</text>
<line x1="80" x2="1160" y1="550" y2="550" stroke="#6b7078"/>
<text x="620.0" y="598" font-size="13" text-anchor="middle" fill="#6b7078">Experiment #</text>
<text x="22" y="310.0" font-size="13" text-anchor="middle" fill="#6b7078" transform="rotate(-90 22 310.0)">Elo (higher is better)</text>
<line x1="80" x2="1160" y1="358.0" y2="358.0" stroke="#1d1f23" stroke-dasharray="6 5" opacity="0.6"/>
<text x="84" y="352.0" font-size="12" fill="#1d1f23">TARGET_ELO 1800</text>
<circle cx="600" cy="31" r="5" fill="#2a78d6"/>
<text x="610" y="35" font-size="13" fill="#1d1f23">sep25-erik</text>
<circle cx="836.0" cy="300.4" r="3.5" fill="#c4c7cc"/>
<path d="M188.0,358.0 L404.0,358.0 L404.0,312.9 L620.0,312.9 L620.0,269.2 L1052.0,269.2 L1052.0,217.8 L1052.0,217.8" fill="none" stroke="#2a78d6" stroke-width="2"/>
<circle cx="188.0" cy="358.0" r="5" fill="#2a78d6" stroke="#ffffff" stroke-width="1.5"/>
<text x="195.0" y="351.0" font-size="10.5" fill="#2a78d6" transform="rotate(-28 195.0 351.0)">baseline</text>
<circle cx="404.0" cy="312.9" r="5" fill="#2a78d6" stroke="#ffffff" stroke-width="1.5"/>
<text x="411.0" y="305.9" font-size="10.5" fill="#2a78d6" transform="rotate(-28 411.0 305.9)">search: transposition table 64MB + hash-m…</text>
<circle cx="620.0" cy="269.2" r="5" fill="#2a78d6" stroke="#ffffff" stroke-width="1.5"/>
<text x="627.0" y="262.2" font-size="10.5" fill="#2a78d6" transform="rotate(-28 627.0 262.2)">eval: tapered evaluation by non-pawn mate…</text>
<circle cx="1052.0" cy="217.8" r="5" fill="#2a78d6" stroke="#ffffff" stroke-width="1.5"/>
<text x="1059.0" y="210.8" font-size="10.5" fill="#2a78d6" transform="rotate(-28 1059.0 210.8)">search: merge main (NMP + LMR + PVS + kil…</text>
<path d="M188.0,358.2 L195.0,365.2 L188.0,372.2 L181.0,365.2 Z" fill="#ffffff" stroke="#2a78d6" stroke-width="2"/>
<path d="M1052.0,160.4 L1059.0,167.4 L1052.0,174.4 L1045.0,167.4 Z" fill="#ffffff" stroke="#2a78d6" stroke-width="2"/>
<text x="1160" y="598" font-size="11" text-anchor="end" fill="#6b7078">grey = discarded · dot = kept (0.25 s/move) · ◇ = FULL (5 s/move) · line = running best</text>
</svg>
