<svg xmlns="http://www.w3.org/2000/svg" width="1200" height="620" viewBox="0 0 1200 620" font-family="-apple-system,Segoe UI,Helvetica,Arial,sans-serif">
<rect width="1200" height="620" fill="#ffffff"/>
<text x="80" y="36" font-size="20" font-weight="600" fill="#1d1f23">Elo vs Stockfish 19: 19 experiments, 12 kept</text>
<line x1="80" x2="1160" y1="550.0" y2="550.0" stroke="#e6e8eb"/>
<text x="70" y="554.0" font-size="12" text-anchor="end" fill="#6b7078">1400</text>
<line x1="80" x2="1160" y1="454.0" y2="454.0" stroke="#e6e8eb"/>
<text x="70" y="458.0" font-size="12" text-anchor="end" fill="#6b7078">1600</text>
<line x1="80" x2="1160" y1="358.0" y2="358.0" stroke="#e6e8eb"/>
<text x="70" y="362.0" font-size="12" text-anchor="end" fill="#6b7078">1800</text>
<line x1="80" x2="1160" y1="262.0" y2="262.0" stroke="#e6e8eb"/>
<text x="70" y="266.0" font-size="12" text-anchor="end" fill="#6b7078">2000</text>
<line x1="80" x2="1160" y1="166.0" y2="166.0" stroke="#e6e8eb"/>
<text x="70" y="170.0" font-size="12" text-anchor="end" fill="#6b7078">2200</text>
<line x1="80" x2="1160" y1="70.0" y2="70.0" stroke="#e6e8eb"/>
<text x="70" y="74.0" font-size="12" text-anchor="end" fill="#6b7078">2400</text>
<text x="125.0" y="570" font-size="12" text-anchor="middle" fill="#6b7078">1</text>
<text x="215.0" y="570" font-size="12" text-anchor="middle" fill="#6b7078">2</text>
<text x="305.0" y="570" font-size="12" text-anchor="middle" fill="#6b7078">3</text>
<text x="395.0" y="570" font-size="12" text-anchor="middle" fill="#6b7078">4</text>
<text x="485.0" y="570" font-size="12" text-anchor="middle" fill="#6b7078">5</text>
<text x="575.0" y="570" font-size="12" text-anchor="middle" fill="#6b7078">6</text>
<text x="665.0" y="570" font-size="12" text-anchor="middle" fill="#6b7078">7</text>
<text x="755.0" y="570" font-size="12" text-anchor="middle" fill="#6b7078">8</text>
<text x="845.0" y="570" font-size="12" text-anchor="middle" fill="#6b7078">9</text>
<text x="935.0" y="570" font-size="12" text-anchor="middle" fill="#6b7078">10</text>
<text x="1025.0" y="570" font-size="12" text-anchor="middle" fill="#6b7078">11</text>
<text x="1115.0" y="570" font-size="12" text-anchor="middle" fill="#6b7078">12</text>
<line x1="80" x2="1160" y1="550" y2="550" stroke="#6b7078"/>
<text x="620.0" y="598" font-size="13" text-anchor="middle" fill="#6b7078">Experiment #</text>
<text x="22" y="310.0" font-size="13" text-anchor="middle" fill="#6b7078" transform="rotate(-90 22 310.0)">Elo (higher is better)</text>
<line x1="80" x2="1160" y1="358.0" y2="358.0" stroke="#1d1f23" stroke-dasharray="6 5" opacity="0.6"/>
<text x="84" y="352.0" font-size="12" fill="#1d1f23">TARGET_ELO 1800</text>
<circle cx="600" cy="31" r="5" fill="#2a78d6"/>
<text x="610" y="35" font-size="13" fill="#1d1f23">sep25-erik</text>
<circle cx="305.0" cy="302.8" r="3.5" fill="#c4c7cc"/>
<circle cx="395.0" cy="313.8" r="3.5" fill="#c4c7cc"/>
<circle cx="755.0" cy="226.0" r="3.5" fill="#c4c7cc"/>
<circle cx="1025.0" cy="300.4" r="3.5" fill="#c4c7cc"/>
<path d="M125.0,302.8 L485.0,302.8 L485.0,226.0 L575.0,226.0 L575.0,164.6 L845.0,164.6 L845.0,105.5 L1115.0,105.5" fill="none" stroke="#2a78d6" stroke-width="2"/>
<circle cx="125.0" cy="302.8" r="5" fill="#2a78d6" stroke="#ffffff" stroke-width="1.5"/>
<text x="132.0" y="295.8" font-size="10.5" fill="#2a78d6" transform="rotate(-28 132.0 295.8)">baseline</text>
<circle cx="215.0" cy="358.0" r="5" fill="#2a78d6" stroke="#ffffff" stroke-width="1.5"/>
<text x="222.0" y="351.0" font-size="10.5" fill="#2a78d6" transform="rotate(-28 222.0 351.0)">baseline</text>
<circle cx="485.0" cy="226.0" r="5" fill="#2a78d6" stroke="#ffffff" stroke-width="1.5"/>
<text x="492.0" y="219.0" font-size="10.5" fill="#2a78d6" transform="rotate(-28 492.0 219.0)">search: move ordering package — TT kept a…</text>
<circle cx="575.0" cy="164.6" r="5" fill="#2a78d6" stroke="#ffffff" stroke-width="1.5"/>
<text x="582.0" y="157.6" font-size="10.5" fill="#2a78d6" transform="rotate(-28 582.0 157.6)">search: null-move pruning + late-move red…</text>
<circle cx="665.0" cy="312.9" r="5" fill="#2a78d6" stroke="#ffffff" stroke-width="1.5"/>
<text x="672.0" y="305.9" font-size="10.5" fill="#2a78d6" transform="rotate(-28 672.0 305.9)">search: transposition table 64MB + hash-m…</text>
<circle cx="845.0" cy="105.5" r="5" fill="#2a78d6" stroke="#ffffff" stroke-width="1.5"/>
<text x="852.0" y="98.5" font-size="10.5" fill="#2a78d6" transform="rotate(-28 852.0 98.5)">search: check extension + all evasions in…</text>
<circle cx="935.0" cy="269.2" r="5" fill="#2a78d6" stroke="#ffffff" stroke-width="1.5"/>
<text x="942.0" y="262.2" font-size="10.5" fill="#2a78d6" transform="rotate(-28 942.0 262.2)">eval: tapered evaluation by non-pawn mate…</text>
<circle cx="1115.0" cy="217.8" r="5" fill="#2a78d6" stroke="#ffffff" stroke-width="1.5"/>
<text x="1122.0" y="210.8" font-size="10.5" fill="#2a78d6" transform="rotate(-28 1122.0 210.8)">search: merge main (NMP + LMR + PVS + kil…</text>
<path d="M485.0,358.2 L492.0,365.2 L485.0,372.2 L478.0,365.2 Z" fill="#ffffff" stroke="#2a78d6" stroke-width="2"/>
<circle cx="710" cy="31" r="5" fill="#d9622b"/>
<text x="720" y="35" font-size="13" fill="#1d1f23">sep25-robin</text>
<circle cx="215.0" cy="302.8" r="3.5" fill="#c4c7cc"/>
<circle cx="305.0" cy="313.8" r="3.5" fill="#c4c7cc"/>
<circle cx="575.0" cy="226.0" r="3.5" fill="#c4c7cc"/>
<path d="M125.0,302.8 L395.0,302.8 L395.0,226.0 L485.0,226.0 L485.0,164.6 L665.0,164.6 L665.0,105.5 L665.0,105.5" fill="none" stroke="#d9622b" stroke-width="2"/>
<circle cx="125.0" cy="302.8" r="5" fill="#d9622b" stroke="#ffffff" stroke-width="1.5"/>
<text x="132.0" y="295.8" font-size="10.5" fill="#d9622b" transform="rotate(-28 132.0 295.8)">baseline</text>
<circle cx="395.0" cy="226.0" r="5" fill="#d9622b" stroke="#ffffff" stroke-width="1.5"/>
<text x="402.0" y="219.0" font-size="10.5" fill="#d9622b" transform="rotate(-28 402.0 219.0)">search: move ordering package — TT kept a…</text>
<circle cx="485.0" cy="164.6" r="5" fill="#d9622b" stroke="#ffffff" stroke-width="1.5"/>
<text x="492.0" y="157.6" font-size="10.5" fill="#d9622b" transform="rotate(-28 492.0 157.6)">search: null-move pruning + late-move red…</text>
<circle cx="665.0" cy="105.5" r="5" fill="#d9622b" stroke="#ffffff" stroke-width="1.5"/>
<text x="672.0" y="98.5" font-size="10.5" fill="#d9622b" transform="rotate(-28 672.0 98.5)">search: check extension + all evasions in…</text>
<text x="1160" y="598" font-size="11" text-anchor="end" fill="#6b7078">grey = discarded · dot = kept (0.25 s/move) · ◇ = FULL (5 s/move) · line = running best</text>
</svg>
