<svg xmlns="http://www.w3.org/2000/svg" width="1200" height="620" viewBox="0 0 1200 620" font-family="-apple-system,Segoe UI,Helvetica,Arial,sans-serif">
<rect width="1200" height="620" fill="#ffffff"/>
<text x="80" y="36" font-size="20" font-weight="600" fill="#1d1f23">Elo vs Stockfish 19: 16 experiments, 10 kept</text>
<line x1="80" x2="1160" y1="550.0" y2="550.0" stroke="#e6e8eb"/>
<text x="70" y="554.0" font-size="12" text-anchor="end" fill="#6b7078">1500</text>
<line x1="80" x2="1160" y1="430.0" y2="430.0" stroke="#e6e8eb"/>
<text x="70" y="434.0" font-size="12" text-anchor="end" fill="#6b7078">2000</text>
<line x1="80" x2="1160" y1="310.0" y2="310.0" stroke="#e6e8eb"/>
<text x="70" y="314.0" font-size="12" text-anchor="end" fill="#6b7078">2500</text>
<line x1="80" x2="1160" y1="190.0" y2="190.0" stroke="#e6e8eb"/>
<text x="70" y="194.0" font-size="12" text-anchor="end" fill="#6b7078">3000</text>
<line x1="80" x2="1160" y1="70.0" y2="70.0" stroke="#e6e8eb"/>
<text x="70" y="74.0" font-size="12" text-anchor="end" fill="#6b7078">3500</text>
<text x="140.0" y="570" font-size="12" text-anchor="middle" fill="#6b7078">1</text>
<text x="260.0" y="570" font-size="12" text-anchor="middle" fill="#6b7078">2</text>
<text x="380.0" y="570" font-size="12" text-anchor="middle" fill="#6b7078">3</text>
<text x="500.0" y="570" font-size="12" text-anchor="middle" fill="#6b7078">4</text>
<text x="620.0" y="570" font-size="12" text-anchor="middle" fill="#6b7078">5</text>
<text x="740.0" y="570" font-size="12" text-anchor="middle" fill="#6b7078">6</text>
<text x="860.0" y="570" font-size="12" text-anchor="middle" fill="#6b7078">7</text>
<text x="980.0" y="570" font-size="12" text-anchor="middle" fill="#6b7078">8</text>
<text x="1100.0" y="570" font-size="12" text-anchor="middle" fill="#6b7078">9</text>
<line x1="80" x2="1160" y1="550" y2="550" stroke="#6b7078"/>
<text x="620.0" y="598" font-size="13" text-anchor="middle" fill="#6b7078">Experiment #</text>
<text x="22" y="310.0" font-size="13" text-anchor="middle" fill="#6b7078" transform="rotate(-90 22 310.0)">Elo (higher is better)</text>
<line x1="80" x2="1160" y1="190.0" y2="190.0" stroke="#1d1f23" stroke-dasharray="6 5" opacity="0.6"/>
<text x="84" y="184.0" font-size="12" fill="#1d1f23">TARGET_ELO 3000</text>
<circle cx="600" cy="31" r="5" fill="#2a78d6"/>
<text x="610" y="35" font-size="13" fill="#1d1f23">sep25-erik</text>
<circle cx="500.0" cy="449.2" r="3.5" fill="#c4c7cc"/>
<circle cx="980.0" cy="351.8" r="3.5" fill="#c4c7cc"/>
<path d="M140.0,478.0 L260.0,478.0 L260.0,455.4 L380.0,455.4 L380.0,433.6 L620.0,433.6 L620.0,407.9 L740.0,407.9 L740.0,373.8 L860.0,373.8 L860.0,334.0 L1100.0,334.0 L1100.0,220.5 L1100.0,220.5" fill="none" stroke="#2a78d6" stroke-width="2"/>
<circle cx="140.0" cy="478.0" r="5" fill="#2a78d6" stroke="#ffffff" stroke-width="1.5"/>
<text x="147.0" y="471.0" font-size="10.5" fill="#2a78d6" transform="rotate(-28 147.0 471.0)">baseline</text>
<circle cx="260.0" cy="455.4" r="5" fill="#2a78d6" stroke="#ffffff" stroke-width="1.5"/>
<text x="267.0" y="448.4" font-size="10.5" fill="#2a78d6" transform="rotate(-28 267.0 448.4)">search: transposition table 64MB + hash-m…</text>
<circle cx="380.0" cy="433.6" r="5" fill="#2a78d6" stroke="#ffffff" stroke-width="1.5"/>
<text x="387.0" y="426.6" font-size="10.5" fill="#2a78d6" transform="rotate(-28 387.0 426.6)">eval: tapered evaluation by non-pawn mate…</text>
<circle cx="620.0" cy="407.9" r="5" fill="#2a78d6" stroke="#ffffff" stroke-width="1.5"/>
<text x="627.0" y="400.9" font-size="10.5" fill="#2a78d6" transform="rotate(-28 627.0 400.9)">search: merge main (NMP + LMR + PVS + kil…</text>
<circle cx="740.0" cy="373.8" r="5" fill="#2a78d6" stroke="#ffffff" stroke-width="1.5"/>
<text x="747.0" y="366.8" font-size="10.5" fill="#2a78d6" transform="rotate(-28 747.0 366.8)">eval: king safety (pawn shield + king-zon…</text>
<circle cx="860.0" cy="334.0" r="5" fill="#2a78d6" stroke="#ffffff" stroke-width="1.5"/>
<text x="867.0" y="327.0" font-size="10.5" fill="#2a78d6" transform="rotate(-28 867.0 327.0)">time: soft limit 60%, keep best root move…</text>
<circle cx="1100.0" cy="220.5" r="5" fill="#2a78d6" stroke="#ffffff" stroke-width="1.5"/>
<text x="1107.0" y="213.5" font-size="10.5" fill="#2a78d6" transform="rotate(-28 1107.0 213.5)">adopt main@3e2bf9b</text>
<path d="M140.0,474.6 L147.0,481.6 L140.0,488.6 L133.0,481.6 Z" fill="#ffffff" stroke="#2a78d6" stroke-width="2"/>
<path d="M620.0,375.7 L627.0,382.7 L620.0,389.7 L613.0,382.7 Z" fill="#ffffff" stroke="#2a78d6" stroke-width="2"/>
<path d="M740.0,327.7 L747.0,334.7 L740.0,341.7 L733.0,334.7 Z" fill="#ffffff" stroke="#2a78d6" stroke-width="2"/>
<path d="M860.0,327.0 L867.0,334.0 L860.0,341.0 L853.0,334.0 Z" fill="#ffffff" stroke="#2a78d6" stroke-width="2"/>
<circle cx="710" cy="31" r="5" fill="#d9622b"/>
<text x="720" y="35" font-size="13" fill="#1d1f23">sep25-robin</text>
<circle cx="260.0" cy="450.4" r="3.5" fill="#c4c7cc"/>
<circle cx="380.0" cy="455.9" r="3.5" fill="#c4c7cc"/>
<circle cx="740.0" cy="412.0" r="3.5" fill="#c4c7cc"/>
<path d="M140.0,450.4 L500.0,450.4 L500.0,412.0 L620.0,412.0 L620.0,381.3 L860.0,381.3 L860.0,351.8 L860.0,351.8" fill="none" stroke="#d9622b" stroke-width="2"/>
<circle cx="140.0" cy="450.4" r="5" fill="#d9622b" stroke="#ffffff" stroke-width="1.5"/>
<text x="147.0" y="443.4" font-size="10.5" fill="#d9622b" transform="rotate(-28 147.0 443.4)">baseline</text>
<circle cx="500.0" cy="412.0" r="5" fill="#d9622b" stroke="#ffffff" stroke-width="1.5"/>
<text x="507.0" y="405.0" font-size="10.5" fill="#d9622b" transform="rotate(-28 507.0 405.0)">search: move ordering package — TT kept a…</text>
<circle cx="620.0" cy="381.3" r="5" fill="#d9622b" stroke="#ffffff" stroke-width="1.5"/>
<text x="627.0" y="374.3" font-size="10.5" fill="#d9622b" transform="rotate(-28 627.0 374.3)">search: null-move pruning + late-move red…</text>
<circle cx="860.0" cy="351.8" r="5" fill="#d9622b" stroke="#ffffff" stroke-width="1.5"/>
<text x="867.0" y="344.8" font-size="10.5" fill="#d9622b" transform="rotate(-28 867.0 344.8)">search: check extension + all evasions in…</text>
<circle cx="828" cy="31" r="5" fill="#1f9e6e"/>
<text x="838" y="35" font-size="13" fill="#1d1f23">sep26-robin</text>
<path d="M140.0,256.9 L147.0,263.9 L140.0,270.9 L133.0,263.9 Z" fill="#ffffff" stroke="#1f9e6e" stroke-width="2"/>
<path d="M140.0,250.7 L147.0,257.7 L140.0,264.7 L133.0,257.7 Z" fill="#ffffff" stroke="#1f9e6e" stroke-width="2"/>
<path d="M140.0,165.0 L147.0,172.0 L140.0,179.0 L133.0,172.0 Z" fill="#ffffff" stroke="#1f9e6e" stroke-width="2"/>
<text x="1160" y="598" font-size="11" text-anchor="end" fill="#6b7078">grey = discarded · dot = kept (0.25 s/move) · ◇ = FULL (5 s/move) · line = running best</text>
</svg>
